<svg width="64" height="64" viewBox="0 0 64 64" fill="none" xmlns="http://www.w3.org/2000/svg">
<path d="M0 32C0 14.3269 14.3269 0 32 0C49.6731 0 64 14.3269 64 32C64 49.6731 49.6731 64 32 64C14.3269 64 0 49.6731 0 32Z" fill="#FEF3C7"/>
<path d="M48 48H16V16H48V48Z" stroke="#F59E0B"/>
<path d="M37.334 38.6673L44.0007 32.0007L37.334 25.334" stroke="#F59E0B" stroke-width="2.66667" stroke-linecap="round" stroke-linejoin="round"/>
<path d="M44 32H28" stroke="#F59E0B" stroke-width="2.66667" stroke-linecap="round" stroke-linejoin="round"/>
<path d="M28 44H22.6667C21.9594 44 21.2811 43.719 20.781 43.219C20.281 42.7189 20 42.0406 20 41.3333V22.6667C20 21.9594 20.281 21.2811 20.781 20.781C21.2811 20.281 21.9594 20 22.6667 20H28" stroke="#F59E0B" stroke-width="2.66667" stroke-linecap="round" stroke-linejoin="round"/>
</svg>
